<svg xmlns="http://www.w3.org/2000/svg" width="16" height="16" fill="none"><path fill="#EB5757" d="M12.857 10.439c-.245.057-.603.063-.987.019a5.6 5.6 0 0 1-1.247-.297c.738-.085 1.31-.06 1.799.08.116.032.306.12.434.197m-4.114-.54-.09.019q-.297.065-.577.122l-.25.051c-.505.102-1.021.206-1.53.33.193-.373.373-.75.55-1.118a52 52 0 0 1 .4-.827q.105.138.22.277c.345.42.78.809 1.277 1.145M7.459 5.692c.033.46-.091.903-.274 1.328-.224-.526-.329-1.105-.048-1.574a1 1 0 0 1 .17-.217.9.9 0 0 1 .152.463m-2.634 5.83q-.189.269-.387.508c-.319.383-.84.794-1.108.794-.026 0-.058-.004-.104-.043-.03-.025-.035-.043-.034-.068.01-.14.243-.392.582-.625a6 6 0 0 1 1.051-.567m8.884-1.065c-.04-.47-1.03-.77-1.04-.773a4.6 4.6 0 0 0-1.272-.161c-.505 0-1.05.058-1.751.189a5.6 5.6 0 0 1-1.564-1.284 8 8 0 0 1-.476-.642c.34-.649.645-1.346.59-2.128-.045-.626-.399-1.047-.88-1.047q-.497.001-.845.58c-.412.687-.304 1.566.322 2.615-.226.423-.435.861-.638 1.285a26 26 0 0 1-.804 1.59c-.822.26-1.496.574-2.058.96-.369.253-.813.64-.838 1.042-.012.19.07.364.235.504a.98.98 0 0 0 .64.226c.803 0 1.576-.88 1.723-1.058.295-.355.57-.751.841-1.208.682-.197 1.408-.344 2.112-.486l.252-.05.589-.126q.322-.07.657-.14a6.8 6.8 0 0 0 2.259.695c.639.074 1.206.031 1.59-.129.345-.143.364-.365.356-.454m1.555 4.04c0 .86-.95.912-1.14.914H1.875c-1.073 0-1.138-.763-1.14-.915V1.503c0-.861.95-.914 1.14-.915h8.273l.004.003V3.17c0 .517.392 1.497 1.876 1.497h3.207l.028.022zm-.76-10.419h-2.475c-1.073 0-1.137-.76-1.139-.91V1.182zM16 14.497V4.447l-5.11-4.1V.33h-.024l-.41-.33h-8.58C1.226 0 0 .314 0 1.503v12.994C0 15.017.392 16 1.876 16h12.249c.648 0 1.875-.314 1.875-1.503"/></svg>