<svg width="16" height="16" viewBox="0 0 16 16" fill="none" xmlns="http://www.w3.org/2000/svg">
<path d="M12.8565 10.4385C12.6124 10.496 12.254 10.5025 11.8697 10.458C11.4573 10.4102 11.0366 10.3096 10.6232 10.1612C11.3605 10.0755 11.9325 10.1019 12.4217 10.2404C12.5376 10.2732 12.728 10.3608 12.8565 10.4385ZM8.74271 9.89836C8.71271 9.90488 8.68316 9.91104 8.65375 9.91756C8.45536 9.96068 8.26233 10.0028 8.07631 10.0402L7.82547 10.091C7.3209 10.193 6.80501 10.2971 6.29548 10.4212C6.48911 10.0482 6.66903 9.6712 6.84518 9.30256C6.97561 9.02968 7.10879 8.75092 7.24652 8.47576C7.31639 8.56792 7.38932 8.66012 7.4652 8.75256C7.8109 9.17304 8.24545 9.5618 8.74271 9.89836ZM7.45924 5.69304C7.49195 6.1532 7.36763 6.59588 7.18527 7.02056C6.96063 6.49544 6.85595 5.91556 7.13678 5.4474C7.20881 5.3274 7.26781 5.26324 7.30608 5.22976C7.36518 5.30264 7.44291 5.46568 7.45924 5.69304ZM4.82507 11.5222C4.69886 11.7025 4.57003 11.8713 4.43798 12.0307C4.11933 12.4142 3.59818 12.8248 3.33046 12.8248C3.30411 12.8248 3.27223 12.8214 3.22565 12.7822C3.19566 12.757 3.19086 12.739 3.19231 12.7145C3.20134 12.5735 3.43527 12.3224 3.77416 12.0895C4.08175 11.8783 4.42941 11.6905 4.82507 11.5222ZM13.709 10.4584C13.6681 9.98876 12.6781 9.68744 12.6683 9.68464C12.2856 9.57628 11.8698 9.52364 11.3973 9.52364C10.8915 9.52364 10.3461 9.58208 9.64577 9.71276C9.02259 9.35996 8.48426 8.91828 8.08207 8.42932C7.90446 8.21328 7.74478 7.99764 7.60559 7.787C7.94538 7.13816 8.25136 6.44052 8.19576 5.65916C8.15094 5.03264 7.79717 4.6118 7.31609 4.6118C6.98607 4.6118 6.70193 4.807 6.47088 5.19252C6.05872 5.87948 6.16706 6.75848 6.79274 7.80736C6.5674 8.23004 6.35804 8.66824 6.15539 9.09244C5.90325 9.61992 5.64345 10.1641 5.35065 10.6818C4.5295 10.9413 3.8549 11.256 3.2927 11.6423C2.9244 11.8949 2.4804 12.2811 2.45506 12.6843C2.44269 12.8742 2.52421 13.0483 2.68987 13.1878C2.86587 13.3359 3.08698 13.4139 3.33011 13.4142C4.13309 13.4142 4.90592 12.5331 5.05253 12.3564C5.34759 12.0012 5.62377 11.605 5.89439 11.148C6.57596 10.9512 7.30232 10.8044 8.00634 10.6625L8.25847 10.6113C8.448 10.5728 8.64499 10.5303 8.84704 10.4861C9.06086 10.44 9.28084 10.3921 9.50443 10.3466C10.2273 10.7138 11.0047 10.9532 11.7629 11.0411C12.4015 11.1153 12.9686 11.0723 13.3525 10.9124C13.698 10.7688 13.717 10.547 13.709 10.4584ZM15.2641 14.4971C15.2641 15.3573 14.3148 15.4103 14.1233 15.412H1.87567C0.802507 15.412 0.737885 14.6487 0.735837 14.4971L0.735691 1.50257C0.735691 0.64156 1.68673 0.58936 1.87553 0.587632H10.149L10.1534 0.59112V3.16958C10.1534 3.68705 10.5452 4.66676 12.0287 4.66676H15.2365L15.264 4.68872L15.2641 14.4971ZM14.5037 4.07904H12.0292C10.9564 4.07904 10.8915 3.31988 10.89 3.16967V1.18123L14.5037 4.07904ZM16 14.4971V4.44628L10.89 0.348409V0.329343H10.8656L10.4552 0H1.8757C1.22689 0 0 0.314134 0 1.50284V14.4974C0 15.0171 0.392156 16 1.8757 16H14.1245C14.7731 15.9999 16 15.6857 16 14.4971Z" fill="#EB5757"/>
</svg>
